# xmcd
# 
# Track frame offsets:
#     150
#     27706
#     50010
#     72480
#     110798
#     137585
#     167203
#     194012
#     214973
#     248672
#     279818
# 
# Disc length: 3990
# 
# Revision: 3
# Processed by: cddbd v1.5.2PL0 Copyright (c) Steve Scherf et al.
# Submitted via: BonkEnc v1.0.6
# 
DISCID=b10f940b
DTITLE=纐纈歩美 - Rainbow Tales
DYEAR=2012
DGENRE=Jazz
TTITLE0=With May
TTITLE1=Two Not One
TTITLE2=Bird Food
TTITLE3=Kayu
TTITLE4=Berkshire Blues
TTITLE5=Diversity
TTITLE6=Mikazuki
TTITLE7=Near The Clouds
TTITLE8=Bewitched
TTITLE9=Summertime
TTITLE10=When Joanna Loved Me
EXTD=YEAR: 2012
EXTT0=
EXTT1=
EXTT2=
EXTT3=
EXTT4=
EXTT5=
EXTT6=
EXTT7=
EXTT8=
EXTT9=
EXTT10=
PLAYORDER=
